<svg width="1180" height="741" viewBox="0 0 1180 741" fill="none" xmlns="http://www.w3.org/2000/svg">
<path d="M1068.97 165.554C1068.97 429.377 843.792 643.465 565.753 643.465C287.714 643.465 62.5408 429.377 62.5408 165.554C62.5408 -98.2701 287.714 -312.358 565.753 -312.358C843.792 -312.358 1068.97 -98.2701 1068.97 165.554Z" stroke="#0044D1" stroke-width="5"/>
<path d="M1014.31 165.919C1014.31 401.272 813.435 592.279 565.367 592.279C317.298 592.279 116.42 401.272 116.42 165.919C116.42 -69.4341 317.298 -260.441 565.367 -260.441C813.435 -260.441 1014.31 -69.4341 1014.31 165.919Z" stroke="#0044D1" stroke-width="5"/>
<path d="M960.432 165.919C960.432 373.005 783.847 541.093 565.751 541.093C347.655 541.093 171.071 373.005 171.071 165.919C171.071 -41.1677 347.655 -209.256 565.751 -209.256C783.847 -209.256 960.432 -41.1677 960.432 165.919Z" stroke="#0044D1" stroke-width="5"/>
<path d="M909.629 165.919C909.629 345.943 755.795 492.102 565.751 492.102C375.707 492.102 221.873 345.943 221.873 165.919C221.873 -14.1053 375.707 -160.264 565.751 -160.264C755.795 -160.264 909.629 -14.1053 909.629 165.919Z" stroke="#0044D1" stroke-width="5"/>
<path d="M145.866 144.713C145.866 120.751 154.276 74.8818 172.421 26.2557C190.567 -22.3704 210.555 -53.2207 240.542 -89.277C295.578 -155.452 403.744 -212.493 461.455 -220.531" stroke="#0044D1" stroke-width="15"/>
<path d="M986.793 174.694C986.793 203.577 978.284 275.314 944.458 338.456C910.631 401.598 882.879 435.227 810.91 490.581C738.94 545.935 625.405 566.262 561.517 566.262" stroke="#0044D1" stroke-width="20"/>
<path d="M561.132 683.988C798.978 683.988 925.599 563.574 961.776 525.679C997.953 487.784 1111.1 359.326 1111.1 169.575" stroke="#0044D1" stroke-width="15"/>
<line x1="909.668" y1="173.352" x2="1179.07" y2="173.352" stroke="#0044D1" stroke-width="5"/>
<line y1="173.29" x2="269.405" y2="173.29" stroke="#0044D1" stroke-width="5"/>
<line x1="563.319" y1="740.144" x2="563.319" y2="469.592" stroke="#0044D1" stroke-width="5"/>
</svg>
