<svg width="5760" height="3455" viewBox="0 0 5760 3455" fill="none" xmlns="http://www.w3.org/2000/svg">
<mask id="mask0_268_54" style="mask-type:luminance" maskUnits="userSpaceOnUse" x="-774" y="-3797" width="7308" height="12873">
<path d="M6534 -3797H-774V9076H6534V-3797Z" fill="white"/>
</mask>
<g mask="url(#mask0_268_54)">
<path d="M4328.52 -6.74658H5779.71V1179.21H4328.52V-6.74658Z" stroke="#0044D1" stroke-width="3" stroke-miterlimit="10"/>
<path d="M4328.52 942.021H5779.71" stroke="#0044D1" stroke-width="3" stroke-miterlimit="10"/>
<path d="M4328.52 704.829H5779.71" stroke="#0044D1" stroke-width="3" stroke-miterlimit="10"/>
<path d="M4328.52 467.638H5779.71" stroke="#0044D1" stroke-width="3" stroke-miterlimit="10"/>
<path d="M4328.52 230.445H5779.71" stroke="#0044D1" stroke-width="3" stroke-miterlimit="10"/>
<path d="M5489.47 -6.74658V1179.21" stroke="#0044D1" stroke-width="3" stroke-miterlimit="10"/>
<path d="M5199.23 -6.74658V1179.21" stroke="#0044D1" stroke-width="3" stroke-miterlimit="10"/>
<path d="M4909 -6.74658V1179.21" stroke="#0044D1" stroke-width="3" stroke-miterlimit="10"/>
<path d="M4618.76 -6.74658V1179.21" stroke="#0044D1" stroke-width="3" stroke-miterlimit="10"/>
<mask id="mask1_268_54" style="mask-type:luminance" maskUnits="userSpaceOnUse" x="-774" y="-3797" width="7308" height="12873">
<path d="M-774 -3797H6534V9076H-774V-3797Z" fill="white"/>
</mask>
<g mask="url(#mask1_268_54)">
<path d="M4328.52 1496.07H4618.76C4618.76 1720.54 4848.9 1515.67 4848.9 1868.69C4848.9 2068.22 5054.12 2345.26 5054.12 2345.26" stroke="#0044D1" stroke-width="3" stroke-miterlimit="10"/>
<path d="M4618.76 1179.21V1496.07" stroke="#0044D1" stroke-width="3" stroke-miterlimit="10"/>
<path d="M5779.71 1496.07H5489.47C5364.32 1550.93 5544.26 1843.04 5373.65 1954.22C5278.22 2016.41 5182.44 2078.26 5133.64 2174.97C5129.68 2183.36 5125.85 2191.55 5122.14 2199.5C5081.33 2286.95 5054.12 2345.26 5054.12 2345.26" stroke="#0044D1" stroke-width="3" stroke-miterlimit="10"/>
<path d="M5489.47 1179.21V1496.07" stroke="#0044D1" stroke-width="3" stroke-miterlimit="10"/>
<path d="M4909 1179.21V1496.07C4909 1661.2 5173.19 1641.88 5068.61 1805.62C4938.78 2008.9 4979.77 2090.56 5039.01 2248.14C5041.34 2263.12 5043.44 2276.67 5045.31 2288.58C5050.85 2324.27 5054.12 2345.26 5054.12 2345.26" stroke="#0044D1" stroke-width="3" stroke-miterlimit="10"/>
<path d="M5199.23 1179.21V1401.04C5199.23 1486.19 5116.37 1522.2 5161.02 1580.15C5255.07 1702.26 5351.92 1835.25 5144.19 1985.23C5080.33 2031.34 5086.83 2155.78 5069.21 2248.24C5066.88 2263.17 5064.78 2276.69 5062.93 2288.58C5057.38 2324.27 5054.12 2345.26 5054.12 2345.26" stroke="#0044D1" stroke-width="3" stroke-miterlimit="10"/>
<path d="M4328.52 1878.84H4618.76C4766.79 1878.84 4711.45 2202.59 5054.12 2345.26" stroke="#0044D1" stroke-width="3" stroke-miterlimit="10"/>
<path d="M5054.12 2345.26C5054.12 2345.26 5099.09 2297.07 5160.14 2231.67C5166.92 2224.41 5173.9 2216.92 5181.06 2209.28C5244.66 2133.52 5348.8 2100.77 5433.36 2054.38C5493.1 2021.59 5534.51 1969.04 5541.25 1910.81C5543.28 1893.23 5553.19 1878.84 5588.07 1878.84H5779.71" stroke="#0044D1" stroke-width="3" stroke-miterlimit="10"/>
<path d="M5779.71 2345.26H5596.8C5523.28 2345.26 5492.81 2409.58 5445.03 2406.59C5379.31 2402.48 5349.47 2307.7 5261.49 2310.64C5175.79 2313.51 4885.52 2396.01 4803.75 2345.26C4710.04 2287.11 4691.31 2202.25 4618.75 2202.25C4564.6 2202.25 4515.7 2345.26 4448.38 2345.26H4328.52" stroke="#0044D1" stroke-width="3" stroke-miterlimit="10"/>
<path d="M5779.71 3194.45H5489.47C5489.47 2969.97 5259.34 3174.87 5259.34 2821.83C5259.34 2622.3 5054.12 2345.26 5054.12 2345.26" stroke="#0044D1" stroke-width="3" stroke-miterlimit="10"/>
<path d="M5489.47 3511.31V3194.45" stroke="#0044D1" stroke-width="3" stroke-miterlimit="10"/>
<path d="M4328.52 3194.45H4618.76C4743.92 3139.6 4563.98 2847.48 4734.59 2736.3C4830.01 2674.1 4925.8 2612.26 4974.59 2515.54C4978.56 2507.16 4982.38 2498.96 4986.1 2491.01C5026.91 2403.56 5054.12 2345.26 5054.12 2345.26" stroke="#0044D1" stroke-width="3" stroke-miterlimit="10"/>
<path d="M4618.76 3511.31V3194.45" stroke="#0044D1" stroke-width="3" stroke-miterlimit="10"/>
<path d="M5199.23 3511.31V3194.45C5199.23 3029.31 4935.04 3048.62 5039.62 2884.9C5169.45 2681.62 5128.46 2599.96 5069.23 2442.38C5066.89 2427.4 5064.79 2413.85 5062.93 2401.93C5057.38 2366.25 5054.12 2345.26 5054.12 2345.26" stroke="#0044D1" stroke-width="3" stroke-miterlimit="10"/>
<path d="M4909 3511.31V3289.45C4909 3204.3 4991.86 3168.3 4947.22 3110.37C4853.15 2988.28 4756.32 2855.26 4964.04 2705.29C5027.9 2659.18 5021.4 2534.75 5039.03 2442.27C5041.35 2427.35 5043.45 2413.83 5045.31 2401.93C5050.86 2366.25 5054.12 2345.26 5054.12 2345.26" stroke="#0044D1" stroke-width="3" stroke-miterlimit="10"/>
<path d="M5779.71 2811.68H5489.47C5341.45 2811.68 5396.79 2487.93 5054.12 2345.26" stroke="#0044D1" stroke-width="3" stroke-miterlimit="10"/>
<path d="M5054.12 2345.26C5054.12 2345.26 5009.14 2393.44 4948.09 2458.84C4941.31 2466.11 4934.33 2473.59 4927.17 2481.24C4863.57 2557 4759.43 2589.74 4674.87 2636.14C4615.12 2668.93 4573.72 2721.46 4566.98 2779.71C4564.95 2797.28 4555.05 2811.68 4520.15 2811.68H4328.52" stroke="#0044D1" stroke-width="3" stroke-miterlimit="10"/>
<path d="M5779.71 3511.31H4328.52V1179.21H5779.71V3511.31Z" stroke="#0044D1" stroke-width="3" stroke-miterlimit="10"/>
<path d="M5199.23 467.637H4908.99V230.445H5199.23V467.637Z" fill="#0044D1" stroke="#0044D1" stroke-width="3" stroke-miterlimit="10"/>
<path d="M5488.12 704.829H5197.88V467.637H5488.12V704.829Z" fill="#0044D1" stroke="#0044D1" stroke-width="3" stroke-miterlimit="10"/>
<path d="M5779.71 942.021H5489.47V704.829H5779.71V942.021Z" fill="#0044D1" stroke="#0044D1" stroke-width="3" stroke-miterlimit="10"/>
<path d="M4618.76 467.637H4328.51V230.445H4618.76V467.637Z" fill="#0044D1" stroke="#0044D1" stroke-width="3" stroke-miterlimit="10"/>
<path d="M-25.0586 -6.74634H4328.51V4218.19C4328.51 4218.19 2781.64 4218.19 1693.24 4218.19C604.85 4218.19 -25.0586 4218.19 -25.0586 4218.19V-6.74634Z" stroke="#0044D1" stroke-width="3" stroke-miterlimit="10"/>
<path d="M-25.052 2809.86H427.712C475.302 2809.86 523.44 2814.87 568.682 2829.95C616.523 2845.88 651.087 2874.74 691.037 2903.38C727.198 2929.34 763.583 2955.36 803.371 2975.81C844.431 2996.86 888.556 3011.07 934.739 3015.77C1029.3 3025.35 1112.4 2977.68 1191.24 2933.57C1252.49 2899.33 1314.52 2869.63 1382.62 2850.68C1521.96 2811.9 1661.44 2809.86 1804.97 2809.86H2213.77H3012.57H3700H4172.54H4328.52" stroke="#0044D1" stroke-width="3" stroke-miterlimit="10"/>
<path d="M-25.052 2105.71H273.635H347.331C369.864 2103.62 391.815 2104.87 413.374 2108.56C434.939 2112.24 456.105 2118.34 477.136 2126.2C539.809 2149.59 588.725 2189.13 638.46 2232.36C685.583 2273.32 735.812 2319.81 797.944 2337.06C848.193 2351.02 902.381 2361.97 954.687 2363.51C999.793 2364.83 1044.53 2354.62 1084.23 2333.54C1105.07 2322.48 1123.75 2308.1 1140.94 2292.19C1149.44 2284.33 1157.57 2276.1 1165.59 2267.77C1178.4 2254.46 1192.5 2232.63 1213.79 2244.33C1228.96 2252.67 1237.09 2269.11 1251.09 2278.47C1295.66 2308.28 1352.96 2281.82 1386.54 2248.97C1422.62 2213.64 1447.51 2166.43 1489.87 2137.43C1554.46 2093.2 1641.21 2104.89 1715.49 2104.87C1809.49 2104.84 1903.47 2105.36 1997.46 2105.59C2024.71 2105.67 2051.96 2105.71 2079.21 2105.71H2567.75H3037.39H3465.93H3831.2H4111.02H4283.19H4328.52" stroke="#0044D1" stroke-width="3" stroke-miterlimit="10"/>
<path d="M-25.052 1401.56H207.045H273.635C296.412 1397.78 318.404 1397.54 340.274 1401.96C461.634 1519.64 575.185 1595.18 686.267 1619.18C698.602 1621.84 710.918 1623.87 723.206 1625.25C730.345 1626.06 740.718 1634.39 747.492 1637.42C756.478 1641.43 765.646 1645.03 775.025 1648.05C791.17 1653.26 807.871 1656.82 824.821 1658.24C855.555 1660.82 886.195 1656.01 915.298 1646.27C976.475 1625.8 1029.55 1587.4 1085.89 1557.3C1110.78 1544.01 1129.28 1607.59 1156.71 1600.24C1181.65 1593.56 1214.81 1430.81 1239.85 1424.28C1271.16 1416.1 1301.48 1488.09 1328.33 1470.19C1354.58 1452.7 1370.9 1390.31 1401 1378.81C1448.87 1360.53 1497.89 1400.94 1548.43 1401.34C1600.94 1401.76 1653.7 1400.72 1706.17 1402.61C1755.45 1404.38 1804.44 1411.77 1853.39 1417.15C1971.69 1430.14 2088.22 1411.34 2205.97 1401.56C2217.06 1401.56 2228.21 1401.56 2239.35 1401.56H2526.56C2574.07 1401.56 2621.33 1401.56 2668.93 1402.29C2764.74 1399.43 2850.78 1399.43 2944.94 1401.56H3078.8H4328.52" stroke="#0044D1" stroke-width="3" stroke-miterlimit="10"/>
<path d="M-25.052 697.407H147.972C166.363 697.407 186.075 697.413 207.051 697.608C356.243 697.608 491.035 897.501 757.54 897.501C829.233 897.501 908.139 854.115 971.576 825.915C1010.88 808.436 1054.06 787.41 1094.02 766.988C1132.86 747.142 1169.43 720.799 1213.09 713.344C1296.14 699.177 1385.99 710.762 1470.08 710.816C1567.6 710.876 1665.52 713.049 1761.99 728.309C1775.42 730.763 1950.8 760.893 2035.81 719.083C2046.45 713.853 2083.5 711.486 2093.6 703.716C2347.67 757.601 2592.65 737.977 2845.46 697.407H2879.76H4328.52" stroke="#0044D1" stroke-width="3" stroke-miterlimit="10"/>
<path d="M3602.92 -6.74658V4218.19" stroke="#0044D1" stroke-width="3" stroke-miterlimit="10"/>
<path d="M2877.33 -6.74658V361.461V405.343C2879.46 611.318 2908.14 822.415 2850.78 1033.52C2822.1 1188.33 2879.46 1343.13 2877.33 1501.2V1535.93V3038.09V3038.36C2877.33 3056.87 2875.22 3075.3 2870.82 3093.27C2834.56 3241.18 2829.05 3393.71 2841.5 3544.97C2850.48 3654.12 2867.93 3766.22 2874.7 3876.98C2881.63 3990.23 2877.33 4104.74 2877.33 4218.19" stroke="#0044D1" stroke-width="3" stroke-miterlimit="10"/>
<path d="M2151.73 -6.74658V523.675C2151.76 531.988 2151.79 540.369 2151.85 548.851C2191.09 808.349 2191.09 1075.74 2151.73 1330.04V1363.9V3225.62C2151.73 3243.06 2153.63 3260.49 2157.75 3277.45C2218 3526.06 2189.88 3771.32 2151.74 4010.34C2151.73 4020.53 2151.73 4030.32 2151.73 4039.77V4218.19" stroke="#0044D1" stroke-width="3" stroke-miterlimit="10"/>
<path d="M1457.92 -6.74658V242.614C1457.94 254.736 1457.95 267.234 1457.99 280.14C1488.39 737.977 1474.05 1216.47 1457.92 1676.29V1711.68V1813.29C1457.32 1826.42 1457.17 1838.22 1456.98 1850.14C1429.64 2136.39 1434.06 2422.8 1443.65 2707.75C1444.15 2722.75 1444.67 2737.74 1445.2 2752.73C1474.05 3102.32 1502.73 3454.12 1457.99 3809C1457.92 3817.98 1457.92 3826.83 1457.92 3835.62V4218.19" stroke="#0044D1" stroke-width="3" stroke-miterlimit="10"/>
<path d="M732.321 -6.74658V242.614C732.321 254.709 732.321 267.18 732.335 280.053C742.667 653.538 785.69 1019.45 732.423 1398.16C732.341 1409.37 732.321 1420.75 732.321 1432.19V1853.88C733.214 1871.89 734.669 1901.29 735.562 1919.32C758.163 2152.43 769.443 2381.69 728.322 2623.81C672.686 2992.37 792.429 3347.65 738.168 3705.61C734.351 3730.82 732.328 3756.3 732.321 3781.78V3782.18V4218.19" stroke="#0044D1" stroke-width="3" stroke-miterlimit="10"/>
<path d="M729.181 2644.09C713.191 2818.72 796.015 2997.6 972.937 3016.97C907.388 3028.57 728.843 2993.04 729.371 3206.92C713.191 2979.43 642.974 2839.47 427.713 2809.86C480.682 2799.53 508.087 2801.81 569.217 2821.34C641.14 2844.31 678.113 2834.28 700.497 2779.86C713.408 2748.46 713.191 2695.11 729.181 2644.09Z" fill="#0044D1" stroke="#0044D1" stroke-width="3" stroke-miterlimit="10"/>
<path d="M2154.66 354.04C2151.94 711.58 2178.82 738.225 2541.47 737.313C2370.96 740.062 2284.84 751.949 2239.04 799.66C2188.67 852.131 2187.04 947.927 2175.51 1122.54C2175.12 966.117 2146.89 872.976 2110.54 817.468C2105.35 809.536 2098.94 802.905 2093 795.905C2023.07 713.531 1861.26 787.813 1760.87 730.977C1861.26 745.184 2004.66 759.398 2093.29 679.827C2099.85 673.437 2105.72 666.364 2110.95 658.506C2147.57 603.521 2153.46 510.467 2154.66 354.04Z" fill="#0044D1" stroke="#0044D1" stroke-width="3" stroke-miterlimit="10"/>
<path d="M3965.72 472.639H3602.92V235.447H3965.72V472.639Z" fill="#0044D1" stroke="#0044D1" stroke-width="3" stroke-miterlimit="10"/>
<path d="M3965.72 472.639H3602.92V235.447H3965.72V472.639Z" stroke="#0044D1" stroke-width="3" stroke-miterlimit="10"/>
<path d="M4328.52 704.829H3965.72V467.637H4328.52V704.829Z" fill="#0044D1" stroke="#0044D1" stroke-width="3" stroke-miterlimit="10"/>
<path d="M4328.52 704.829H3965.72V467.637H4328.52V704.829Z" stroke="#0044D1" stroke-width="3" stroke-miterlimit="10"/>
<path d="M4328.52 230.445H3965.72V-6.74658H4328.52V230.445Z" fill="#0044D1" stroke="#0044D1" stroke-width="3" stroke-miterlimit="10"/>
<path d="M4328.52 230.445H3965.72V-6.74658H4328.52V230.445Z" stroke="#0044D1" stroke-width="3" stroke-miterlimit="10"/>
</g>
<path d="M4620.75 679.908C4618.9 923.797 4637.24 941.974 4884.61 941.357C4637.24 941.974 4618.8 960.244 4619.41 1204.13C4618.8 960.244 4600.28 941.887 4352.9 940.063C4600.28 941.887 4618.9 923.797 4620.75 679.908Z" fill="#0044D1" stroke="#0044D1" stroke-width="3" stroke-miterlimit="10"/>
</g>
</svg>
