<svg width="663" height="1008" viewBox="0 0 663 1008" fill="none" xmlns="http://www.w3.org/2000/svg">
<g filter="url(#filter0_d_233_108)">
<path d="M632.354 832.394C635.563 825.204 597.286 795.229 571.1 775.81C498.811 722.191 269.005 587.746 258.776 521.975C254.856 496.779 256.544 472.942 258.174 449.891C261.575 401.87 265.089 352.21 218.633 287.525L215.146 282.668L215.106 288.645C215.098 289.91 213.593 414.641 158.125 450.802C145.495 443.996 16.0591 371.865 -21.3191 259.193C-21.5546 257.742 -21.777 256.29 -22.056 254.847C-22.9149 250.386 -24.0005 243.04 -24.637 238.545C-25.9625 229.218 -27.5495 219.927 -28.827 210.593C-31.5694 190.554 -34.2204 170.489 -37.7302 150.568C-43.7252 116.526 -52.8244 82.4914 -70.5304 52.5077C-79.9436 36.5675 -91.9467 21.9354 -106.444 10.3596C-107.25 9.71428 -108.227 10.0195 -108.741 10.6299C-108.872 10.4904 -108.925 10.377 -108.942 10.2985C-108.964 10.3552 -108.981 10.4075 -109.06 10.4991C-101.787 27.8955 -100.022 46.6914 -99.7468 65.6487C-99.2934 97.3503 -106.117 128.52 -113.564 159.319C-114.754 168.955 -115.765 178.529 -115.578 188.37C-115.077 214.804 -110.664 243.393 -123.5 267.818C-126.456 273.442 -129.486 279.053 -132.669 284.582C-135.599 289.971 -138.895 295.329 -142.54 300.452C-145.409 304.69 -148.409 308.832 -151.631 312.813C-157.251 319.758 -163.983 326.682 -172.166 330.554C-173.226 331.055 -183.049 336.073 -195.575 334.321C-197.023 334.12 -201.409 333.048 -205.172 331.522C-205.254 331.6 -205.342 331.67 -205.411 331.761C-205.621 331.665 -205.86 331.744 -206 331.892C-205.922 332.005 -205.843 332.123 -205.769 332.241C-205.673 332.337 -205.564 332.42 -205.485 332.533C-205.084 333.1 -204.797 333.741 -204.395 334.308C-204.334 334.39 -204.334 334.491 -204.291 334.582C-204.051 334.944 -203.82 335.31 -203.602 335.685C-203.506 335.716 -203.406 335.742 -203.31 335.777C-198.483 341.48 -192.519 346.193 -186.201 350.139C-179.918 354.063 -173.169 357.232 -165.966 358.963C-157.155 361.082 -149.808 360.433 -140.896 359.26C-127.777 356.147 -120.239 351.926 -112.386 347.082C-109.382 345.229 -106.479 343.18 -103.727 340.97C-76.9702 319.492 -60.4676 367.928 -43.2325 439.654C-56.9011 430.066 -73.19 422.602 -88.0052 427.367C-69.2093 440.12 -59.0374 459.361 -48.338 479.84C-42.9621 490.13 -37.486 500.114 -30.7323 509.383C-32.4502 493.426 -33.61 477.407 -35.2886 461.45C-35.3235 461.105 -34.7436 461.031 -34.6825 461.367C-31.8747 477.294 -28.5392 493.134 -25.7837 509.069C-24.7242 515.182 -23.8392 521.334 -22.9934 527.49C-2.36623 615.715 23.7807 710.615 68.8326 755.61C86.0764 755.139 103.307 758.461 119.448 764.653C141.797 773.224 161.661 786.095 182.132 798.26C182.336 798.382 182.153 798.696 181.944 798.578C170.743 792.282 159.22 786.409 147.57 780.985C127.523 771.646 106.067 764.055 83.8877 762.198C78.4726 761.745 73.0095 761.657 67.5725 761.949C51.5757 766.153 20.1097 779.42 -13.7545 821.289C-20.5909 829.739 -27.9464 839.174 -35.7377 849.163C-59.9008 880.149 -88.2887 916.525 -109.64 933.686C-125.074 940.627 -139.977 940.269 -158.432 941.111C-162.958 950.489 -149.795 958.372 -137.648 963.355C-130.533 968.491 -112.247 977.081 -87.2249 977.081C-62.1505 977.076 -30.3268 968.443 3.73784 939.07C79.5233 873.696 135.039 833.105 176.847 833.105C177.078 833.105 177.305 833.105 177.536 833.109C181.935 835.873 215.9 856.766 254.207 867.671C255.427 868.521 256.6 869.415 257.738 870.339C258.366 870.444 258.998 870.548 259.626 870.653C280.886 874.167 302.097 877.969 323.326 881.658C323.343 881.405 323.391 881.156 323.404 880.903C355.428 885.704 443.771 895.985 489.145 890.177C489.429 890.116 537.825 888.067 546.427 858.558C546.17 858.462 545.904 858.38 545.646 858.279C528.939 851.94 513.688 842.221 499.365 831.657C499.038 831.413 499.348 830.859 499.692 831.099C507.872 836.78 516.735 841.284 525.774 845.43C533.696 849.062 542.285 851.709 550.626 854.225C554.157 855.288 557.728 856.23 561.312 857.133C584.128 855.502 624.811 849.298 632.354 832.394Z" fill="#0044D1"/>
<path d="M263.725 876.661C264.026 877.097 264.366 877.498 264.64 877.96C269.393 885.948 268.896 897.977 265.076 906.117C259.186 918.661 243.451 924.342 238.594 936.812C254.163 930.991 270.819 938.704 286.554 931.283C300.362 924.774 311.415 911.877 318.582 898.435C320.601 894.646 321.857 890.779 322.615 886.876C310.821 884.849 299.036 882.778 287.247 880.759C279.399 879.412 271.56 878.039 263.725 876.661Z" fill="#0044D1"/>
</g>
<defs>
<filter id="filter0_d_233_108" x="-216" y="0" width="878.543" height="1007.08" filterUnits="userSpaceOnUse" color-interpolation-filters="sRGB">
<feFlood flood-opacity="0" result="BackgroundImageFix"/>
<feColorMatrix in="SourceAlpha" type="matrix" values="0 0 0 0 0 0 0 0 0 0 0 0 0 0 0 0 0 0 127 0" result="hardAlpha"/>
<feOffset dx="10" dy="10"/>
<feGaussianBlur stdDeviation="10"/>
<feComposite in2="hardAlpha" operator="out"/>
<feColorMatrix type="matrix" values="0 0 0 0 0 0 0 0 0 0 0 0 0 0 0 0 0 0 1 0"/>
<feBlend mode="normal" in2="BackgroundImageFix" result="effect1_dropShadow_233_108"/>
<feBlend mode="normal" in="SourceGraphic" in2="effect1_dropShadow_233_108" result="shape"/>
</filter>
</defs>
</svg>
