<svg width="4564" height="3500" viewBox="0 0 4564 3500" fill="none" xmlns="http://www.w3.org/2000/svg">
<g filter="url(#filter0_d_452_2)">
<path d="M3439.39 1347.96C3478.03 1325.59 3504.13 1284.3 3523.78 1244.39C3541.28 1208.86 3554.81 1171.08 3565.42 1132.67C3567.51 1125.09 3569.54 1117.47 3571.25 1109.78C3598.74 1093.03 3627.08 1077.77 3656.08 1063.96C3657.95 1067.69 3660.69 1071 3662.52 1074.8C3664.4 1078.69 3665.92 1082.87 3666.93 1087.09C3669.02 1095.84 3668.44 1106.27 3664.28 1114.22C3663.65 1115.43 3664.5 1117.37 3666 1117.19C3683.58 1115.12 3693.55 1096.63 3699.23 1081.32C3702.87 1071.51 3705.5 1061.27 3710.1 1051.88C3712.78 1046.42 3716.27 1040.68 3720.6 1036.03C3729.06 1032.71 3737.54 1029.48 3746.08 1026.38C3782.54 1013.16 3819.76 1001.82 3857.55 993.163C3863.74 997.135 3869.53 1001.8 3874.47 1008.04C3887.04 1023.9 3890.12 1046.28 3892.38 1065.87C3895.08 1089.36 3896.96 1118.67 3889.34 1141.24C3883.11 1159.68 3866.9 1173.61 3860.61 1190.72C3867.67 1192.93 3878.92 1189.17 3885.85 1186.82C3899.25 1182.26 3912.36 1175.47 3924.32 1167.89C3973.41 1136.78 3993.84 1074.47 4010.25 1020.68C4016.2 1001.18 4022.05 982.067 4033.76 965.423C4037.39 960.261 4043.2 951.736 4049.69 944.133C4067.24 934.399 4087.16 928.449 4111.15 923.828L4111.12 923.919C4171.86 914.064 4393.17 898.704 4480.41 834.192C4486.17 829.93 4493.23 823.408 4496.99 817.101C4500.99 810.398 4501.86 802.23 4498.92 794.802C4495.5 786.115 4488.53 779.356 4481.88 773.232C4459.42 752.573 4430.91 739.289 4401.29 735.447C4399.4 736.903 4397.46 738.282 4395.45 739.579C4388.41 744.105 4380.62 747.51 4372.62 749.794C4356.55 754.371 4338.89 754.273 4323.14 747.912C4322.51 747.664 4322.7 746.532 4323.38 746.693C4339.15 750.295 4355.65 749.796 4370.87 744.401C4378.23 741.792 4385.25 738.197 4391.57 733.526C4392.43 732.89 4393.25 732.196 4394.09 731.531C4393.62 730.713 4393.11 729.906 4392.59 729.125C4391.01 726.761 4389.33 724.465 4387.56 722.243C4383.91 717.669 4379.91 713.408 4375.63 709.473C4347.85 683.906 4253.83 674.159 4202.51 673.647C4194.82 674.939 4187.06 675.688 4179.48 676.038C4157.72 677.035 4135.9 674.259 4114.22 672.137C4092.28 669.994 4070.17 669.143 4048.16 669.333C4038.59 669.415 4029.06 669.818 4019.56 670.403C4006.89 671.389 3994.26 672.781 3981.7 674.659C3962.5 677.531 3943.47 681.422 3924.7 686.359C3905.85 691.315 3887.28 697.602 3867.89 700.141C3855.58 701.75 3842.05 701.633 3829.7 698.006C3828.13 697.231 3826.54 696.487 3824.99 695.677C3812.93 689.39 3801.47 682.119 3790.49 673.966C3768.19 657.425 3748.45 637.578 3728.31 618.38C3708.49 599.481 3688.08 581.077 3665.02 566.539C3642.46 552.325 3617.8 541.668 3592.3 534.926C3578.07 531.166 3563.56 528.642 3548.97 527.335C3541.47 526.666 3533.94 526.28 3526.42 526.338C3521.64 526.377 3516.94 526.946 3512.25 527.632C3512.06 527.634 3511.87 527.584 3511.69 527.597C3510.63 527.681 3509.58 527.834 3508.54 528.05C3507 527.977 3505.46 527.947 3503.94 528.187C3501.79 528.524 3499.71 529.994 3499.62 532.458C3499.62 532.679 3499.72 532.885 3499.75 533.104C3499.5 533.876 3499.53 534.791 3500.04 535.767C3505.28 545.682 3514.96 552.171 3523.8 558.28C3533.28 564.828 3542.38 571.778 3550.91 579.616C3568 595.313 3582.7 613.472 3596.37 632.364C3623.65 670.063 3647.1 710.954 3678.56 745.27C3687.22 754.719 3696.41 763.662 3706.44 771.544C3711.39 775.44 3716.5 779.119 3721.78 782.525C3723.44 783.598 3725.16 784.655 3726.92 785.657C3734.88 782.648 3742.74 779.352 3750.49 775.701C3774.81 764.249 3797.73 749.965 3817.75 731.597C3818.01 731.361 3818.34 731.776 3818.1 732.019C3807.21 743.028 3795.71 753.032 3783.42 762.34C3766.91 774.852 3748.69 785.356 3729.46 793.367C3717.06 804.867 3690.44 836.292 3661.45 872.071C3651.86 873.158 3642.54 876.913 3634 884.474C3626.98 890.691 3620.19 899.896 3618.56 909.524C3623.57 905.515 3629.95 903.283 3636.08 903.701C3595.43 954.876 3556.92 1005.59 3552.27 1014.08C3549.31 1019.48 3546.4 1024.91 3543.54 1030.37C3542.88 1031.65 3541.98 1033.05 3541.18 1034.48C3526.69 1009.92 3508.44 986.028 3484.07 971.568C3471.84 964.321 3457.61 959.446 3443.48 960.33C3440.93 960.488 3438.24 960.742 3435.79 961.525C3434.09 962.072 3433.69 964.152 3434.85 965.49C3460.69 995.337 3475.66 1033.85 3483.67 1072.51C3486.99 1088.56 3489.93 1104.86 3487.95 1121.18C3484.69 1148.13 3478.35 1174.74 3472.28 1201.09C3465.16 1232.05 3457.47 1262.88 3449.56 1293.63C3445.19 1310.6 3440.15 1327.46 3436.17 1344.54C3436.12 1344.79 3436.04 1345.03 3435.97 1345.28C3435.43 1347.33 3437.72 1348.92 3439.39 1347.96Z" fill="#0044D1"/>
<path d="M4184.35 670.929C4186.49 670.789 4188.6 670.573 4190.71 670.347C4191.25 669.624 4191.8 668.895 4192.34 668.188C4195.18 664.481 4198.06 660.81 4200.94 657.138C4206.62 649.908 4212.28 642.654 4217.61 635.149C4228.13 620.356 4237.39 604.231 4241.95 586.271C4243.92 578.514 4245.59 569.65 4245.21 561.307C4245.52 559.936 4245.36 558.498 4244.84 557.159C4244.79 556.782 4244.76 556.391 4244.7 556.017C4244.55 555.128 4243.96 554.717 4243.31 554.652C4242.6 553.857 4241.76 553.165 4240.78 552.71C4234.37 549.728 4228.66 554.951 4225.03 559.78C4215.74 572.157 4205.27 583.202 4192.72 592.07C4168.16 609.441 4139.4 619.162 4114.83 636.503C4108.55 640.935 4102.49 645.804 4097.14 651.404C4093.13 655.601 4089.22 660.231 4086.18 665.342C4097.1 666.165 4108.01 667.249 4118.94 668.342C4140.67 670.508 4162.58 672.379 4184.35 670.929Z" fill="#0044D1"/>
</g>
<g filter="url(#filter1_d_452_2)">
<path d="M848.354 832.394C851.563 825.204 813.286 795.229 787.1 775.81C714.811 722.191 485.005 587.746 474.776 521.975C470.856 496.779 472.544 472.942 474.174 449.891C477.575 401.87 481.089 352.21 434.633 287.525L431.146 282.668L431.106 288.645C431.098 289.91 429.593 414.641 374.125 450.802C361.495 443.996 232.059 371.865 194.681 259.193C194.445 257.742 194.223 256.29 193.944 254.847C193.085 250.386 192 243.04 191.363 238.545C190.038 229.218 188.45 219.927 187.173 210.593C184.431 190.554 181.78 170.489 178.27 150.568C172.275 116.526 163.176 82.4914 145.47 52.5077C136.056 36.5675 124.053 21.9354 109.556 10.3596C108.75 9.71428 107.773 10.0195 107.259 10.6299C107.128 10.4904 107.075 10.377 107.058 10.2985C107.036 10.3552 107.019 10.4075 106.94 10.4991C114.213 27.8955 115.978 46.6914 116.253 65.6487C116.707 97.3503 109.883 128.52 102.436 159.319C101.246 168.955 100.235 178.529 100.422 188.37C100.923 214.804 105.336 243.393 92.4999 267.818C89.5438 273.442 86.5136 279.053 83.3308 284.582C80.4009 289.971 77.1047 295.329 73.4598 300.452C70.5909 304.69 67.5912 308.832 64.3692 312.813C58.7492 319.758 52.0174 326.682 43.8336 330.554C42.7742 331.055 32.951 336.073 20.4247 334.321C18.9772 334.12 14.5911 333.048 10.8284 331.522C10.7456 331.6 10.6584 331.67 10.5886 331.761C10.3794 331.665 10.1395 331.744 10 331.892C10.0785 332.005 10.157 332.123 10.2311 332.241C10.327 332.337 10.436 332.42 10.5145 332.533C10.9156 333.1 11.2034 333.741 11.6045 334.308C11.6656 334.39 11.6655 334.491 11.7091 334.582C11.9489 334.944 12.1801 335.31 12.3981 335.685C12.494 335.716 12.5942 335.742 12.6901 335.777C17.5167 341.48 23.4812 346.193 29.7988 350.139C36.0816 354.063 42.8308 357.232 50.0335 358.963C58.8451 361.082 66.1917 360.433 75.1035 359.26C88.2228 356.147 95.7612 351.926 103.614 347.082C106.618 345.229 109.521 343.18 112.273 340.97C139.03 319.492 155.532 367.928 172.768 439.654C159.099 430.066 142.81 422.602 127.995 427.367C146.791 440.12 156.963 459.361 167.662 479.84C173.038 490.13 178.514 500.114 185.268 509.383C183.55 493.426 182.39 477.407 180.711 461.45C180.677 461.105 181.256 461.031 181.317 461.367C184.125 477.294 187.461 493.134 190.216 509.069C191.276 515.182 192.161 521.334 193.007 527.49C213.634 615.715 239.781 710.615 284.833 755.61C302.076 755.139 319.307 758.462 335.448 764.653C357.797 773.224 377.661 786.095 398.132 798.26C398.336 798.382 398.153 798.696 397.944 798.578C386.743 792.282 375.22 786.409 363.57 780.985C343.523 771.646 322.067 764.055 299.888 762.198C294.473 761.745 289.009 761.657 283.573 761.949C267.576 766.153 236.11 779.42 202.246 821.289C195.409 829.739 188.054 839.174 180.262 849.163C156.099 880.149 127.711 916.525 106.36 933.686C90.926 940.627 76.0235 940.269 57.5676 941.111C53.0419 950.489 66.2048 958.372 78.3517 963.355C85.4672 968.491 103.753 977.081 128.775 977.081C153.849 977.076 185.673 968.443 219.738 939.07C295.523 873.696 351.039 833.105 392.847 833.105C393.078 833.105 393.305 833.105 393.536 833.109C397.935 835.873 431.9 856.766 470.207 867.671C471.427 868.521 472.6 869.415 473.738 870.339C474.366 870.444 474.998 870.548 475.626 870.653C496.886 874.167 518.097 877.969 539.326 881.658C539.343 881.405 539.391 881.156 539.404 880.903C571.428 885.704 659.771 895.985 705.145 890.177C705.429 890.116 753.825 888.067 762.427 858.558C762.17 858.462 761.904 858.38 761.646 858.279C744.939 851.94 729.688 842.221 715.365 831.657C715.038 831.413 715.348 830.859 715.692 831.099C723.872 836.78 732.735 841.284 741.774 845.43C749.696 849.062 758.285 851.709 766.626 854.225C770.157 855.288 773.728 856.23 777.312 857.133C800.128 855.502 840.811 849.298 848.354 832.394Z" fill="#0044D1"/>
</g>
<g filter="url(#filter2_d_452_2)">
<path d="M3198.08 2827.23L3198.08 2827.23L3198.09 2827.27L3198.08 2827.23Z" fill="#0044D1"/>
<path d="M3178.19 2801.06C3178.16 2800.86 3178.12 2800.67 3178.09 2800.48C3178.04 2800.39 3177.98 2800.32 3177.93 2800.24C3178.02 2800.51 3178.11 2800.79 3178.19 2801.06Z" fill="#0044D1"/>
<path d="M2240.62 2999.19C2240.68 2999.18 2240.73 2999.17 2240.79 2999.15C2247.56 3004.97 2254.99 3010.05 2261.93 3015.66C2269.62 3021.88 2277.17 3028.26 2284.59 3034.83C2299.3 3047.85 2313.67 3061.27 2328.17 3074.52C2354.54 3098.63 2379.94 3120.16 2414.77 3140.13C2431.22 3149.55 2448.13 3156.72 2466.95 3158.88C2522.03 3187.79 2540.2 3310.4 2545.02 3314.78C2547 3316.58 2550.29 3314.36 2548.89 3311.88C2553.68 3304.06 2556.53 3294.63 2559.11 3285.97C2562.04 3276.15 2564.47 3266.2 2566.39 3256.13C2570.18 3236.09 2572.15 3215.7 2572.16 3195.29C2572.16 3184.07 2571.55 3172.89 2570.23 3161.75C2570.26 3161.75 2570.28 3161.76 2570.31 3161.75C2573.06 3161.72 2575.81 3161.66 2578.57 3161.57C2583.9 3161.4 2589.22 3161.05 2594.53 3160.64C2605.14 3159.82 2615.74 3158.66 2626.28 3157.23C2630.98 3156.6 2635.67 3155.91 2640.34 3155.18C2639.87 3156.31 2639.4 3157.44 2638.96 3158.54C2637.24 3162.81 2633.7 3166.33 2632.52 3170.67C2647.51 3169.76 2659.38 3161.1 2668.77 3149.89C2675.72 3148.38 2682.66 3146.75 2689.53 3144.82C2695.2 3143.24 2700.82 3141.55 2706.41 3139.72C2708 3139.21 2709.58 3138.66 2711.16 3138.13C2719.46 3118.28 2729.57 3099.17 2741.03 3081.04C2763.06 3046.18 2789.37 3014.42 2814.87 2982.13C2815.04 2981.91 2815.43 2982.21 2815.26 2982.44C2801.4 3000.66 2787.92 3019.25 2774.83 3038.05C2752.65 3069.9 2732.41 3104.05 2717.69 3140.05C2712.88 3151.81 2708.72 3163.84 2705.3 3176.08C2698.22 3207.86 2694.8 3240.29 2697.87 3272.9C2699.52 3290.44 2702.91 3307.84 2708.51 3324.56C2711.28 3332.84 2714.56 3340.97 2718.38 3348.82C2720.38 3352.93 2722.54 3356.97 2724.84 3360.92C2725.91 3362.74 2726.98 3364.58 2728.14 3366.34C2728.79 3367.32 2729.54 3368.13 2730.34 3368.89C2730.43 3369.14 2730.46 3369.38 2730.61 3369.64C2733.8 3374.86 2740.55 3375.8 2745.63 3372.73C2751.35 3369.27 2752.62 3362.1 2753.31 3356C2754.97 3341.38 2754.01 3326.62 2754.47 3311.95C2755.32 3284.83 2763.94 3259.38 2776.91 3235.74C2805.24 3184.07 2850.64 3144.45 2879.35 3093.03C2880.11 3091.68 2880.8 3090.28 2881.53 3088.9C2884.71 3084.15 2888.14 3079.61 2891.86 3075.31C2897.48 3060.81 2901.4 3045.73 2902.53 3030.18C2902.56 3029.72 2903.28 3029.72 2903.25 3030.19C2902.85 3038.25 2901.98 3046.29 2900.79 3054.28C2902.2 3045.85 2903.34 3037.35 2903.7 3028.83C2903.72 3028.36 2904.42 3028.27 2904.52 3028.73C2906.91 3039.28 2907.97 3050.06 2906.47 3060.82C2906.45 3060.97 2906.41 3061.12 2906.39 3061.27C2916.6 3052.83 2927.77 3045.65 2939.55 3039.58C2942.29 3038.16 2945.09 3036.86 2947.88 3035.55C2945.03 3042.41 2941.83 3049.13 2939.15 3055.87C2945.31 3053.04 2952.29 3051.57 2958.61 3048.93C2968.19 3044.93 2978.4 3039.95 2986.96 3034.04C2996.21 3027.67 3004.48 3019.3 3011.83 3010C3019.16 3007.05 3026.42 3003.95 3033.54 3000.49C3061.64 2986.84 3087.07 2967.86 3108.31 2944.95C3118.89 2933.52 3128.48 2921.12 3136.84 2907.97C3145.21 2894.81 3151.84 2880.7 3159.53 2867.15C3163.66 2859.87 3168.17 2852.68 3173.4 2846.1C3173.46 2845.94 3173.53 2845.79 3173.59 2845.63C3174.61 2842.63 3175.44 2839.56 3176 2836.43C3177.2 2829.82 3177.41 2822.96 3176.57 2816.29C3175.58 2808.47 3173.26 2800.78 3170.25 2793.51C3167.5 2786.88 3164.41 2780.39 3161.58 2773.79C3153.37 2757.98 3147.85 2740.71 3145.39 2722.89C3145.32 2722.42 3146.04 2722.22 3146.13 2722.71C3148.23 2734.12 3152.17 2745.41 3157.05 2755.93C3165.58 2774.3 3178.83 2790.83 3193.83 2804.36C3200.97 2810.79 3208.66 2816.68 3216.82 2821.76C3244.04 2823.29 3271.23 2820.25 3298.17 2816.62C3352.54 2809.29 3412.43 2798.8 3464.09 2823.78C3478.93 2830.95 3492.32 2840.72 3506.97 2848.24C3513.29 2851.48 3521.11 2855.83 3528.4 2853.39C3534.61 2851.31 3538.33 2844.28 3535.22 2838.25C3535.09 2838 3534.91 2837.87 3534.75 2837.66C3534.6 2836.89 3534.44 2836.11 3534.14 2835.36C3533.49 2833.76 3532.55 2832.18 3531.74 2830.65C3529.78 2826.92 3527.67 2823.25 3525.44 2819.66C3521.39 2813.14 3516.92 2806.88 3512.15 2800.87C3502.25 2788.42 3490.88 2777.17 3478.53 2767.14C3453.81 2747.06 3425.58 2732.19 3395.87 2720.97C3334.23 2697.69 3268.55 2690.71 3204.03 2679.86C3185.47 2676.74 3166.97 2673.39 3148.6 2669.24C3136.73 2666.56 3125.19 2662.87 3115.3 2656.25C3100.53 2628.21 3081.32 2602.73 3059.36 2579.85C3033.07 2552.47 3002.43 2529.28 2969.29 2510.84C2947.31 2498.61 2924.23 2488.52 2900.44 2480.51L2900.67 2480.9C2900.15 2480.73 2899.66 2480.55 2899.14 2480.38C2836.95 2459.79 2730.4 2440.4 2628.08 2445.66C2500.82 2452.19 2428.89 2501.28 2437.44 2530.3C2441.33 2543.5 2467.87 2569.8 2507.02 2580.7C2508.38 2579.98 2509.72 2579.24 2511.06 2578.49C2520.17 2573.41 2529.03 2567.76 2538.72 2563.81C2547.22 2560.34 2555.94 2558.22 2565.07 2557.32C2582.6 2555.61 2602.51 2558.26 2618.01 2567.05C2618.38 2567.26 2618.13 2567.89 2617.72 2567.74C2607.77 2564.32 2597.84 2561.51 2587.3 2560.76C2568.82 2559.46 2550.31 2563.97 2533.96 2572.43C2524.78 2577.18 2516.11 2582.88 2506.9 2587.57C2505.46 2588.3 2503.98 2588.95 2502.51 2589.63C2495.98 2605.36 2517.48 2639.73 2531.76 2655.25C2549.4 2674.44 2586.44 2714.5 2599.51 2725.14C2601.3 2726.6 2603.08 2727.99 2604.87 2729.34C2627.42 2751.66 2649.83 2774.13 2672.77 2796.07C2689.46 2812.04 2706.15 2828.01 2722.84 2843.98C2734.27 2854.91 2754.06 2873.06 2765.17 2883.19C2796.1 2918.57 2795.65 2958.45 2776.56 2977.94C2776.39 2978.13 2776.21 2978.32 2776.05 2978.51C2772.92 2982.13 2769.72 2985.7 2766.66 2989.37C2760.37 2996.89 2753.9 3004.25 2747.19 3011.4C2733.76 3025.75 2719.21 3039.1 2703.39 3050.77C2673.39 3072.89 2639.36 3089.44 2602.66 3096.72C2587.53 3099.72 2572.49 3100.74 2557.29 3100.53C2550.42 3098.87 2543.6 3097 2536.96 3094.69C2526.57 3091.07 2516.63 3086.42 2506.94 3081.24C2487.05 3070.61 2468.55 3057.65 2449.23 3046.06C2407.98 3021.3 2363.63 2999.65 2315.66 2992.33C2290.34 2988.47 2264.45 2988.64 2239.49 2994.6C2236.53 2995.32 2237.68 2999.88 2240.62 2999.19Z" fill="#0044D1"/>
</g>
<defs>
<filter id="filter0_d_452_2" x="3434.19" y="526.332" width="1086.47" height="841.915" filterUnits="userSpaceOnUse" color-interpolation-filters="sRGB">
<feFlood flood-opacity="0" result="BackgroundImageFix"/>
<feColorMatrix in="SourceAlpha" type="matrix" values="0 0 0 0 0 0 0 0 0 0 0 0 0 0 0 0 0 0 127 0" result="hardAlpha"/>
<feOffset dx="10" dy="10"/>
<feGaussianBlur stdDeviation="5"/>
<feComposite in2="hardAlpha" operator="out"/>
<feColorMatrix type="matrix" values="0 0 0 0 0 0 0 0 0 0 0 0 0 0 0 0 0 0 1 0"/>
<feBlend mode="normal" in2="BackgroundImageFix" result="effect1_dropShadow_452_2"/>
<feBlend mode="normal" in="SourceGraphic" in2="effect1_dropShadow_452_2" result="shape"/>
</filter>
<filter id="filter1_d_452_2" x="0" y="0" width="878.543" height="1007.08" filterUnits="userSpaceOnUse" color-interpolation-filters="sRGB">
<feFlood flood-opacity="0" result="BackgroundImageFix"/>
<feColorMatrix in="SourceAlpha" type="matrix" values="0 0 0 0 0 0 0 0 0 0 0 0 0 0 0 0 0 0 127 0" result="hardAlpha"/>
<feOffset dx="10" dy="10"/>
<feGaussianBlur stdDeviation="10"/>
<feComposite in2="hardAlpha" operator="out"/>
<feColorMatrix type="matrix" values="0 0 0 0 0 0 0 0 0 0 0 0 0 0 0 0 0 0 1 0"/>
<feBlend mode="normal" in2="BackgroundImageFix" result="effect1_dropShadow_452_2"/>
<feBlend mode="normal" in="SourceGraphic" in2="effect1_dropShadow_452_2" result="shape"/>
</filter>
<filter id="filter2_d_452_2" x="2237.76" y="2444.78" width="1318.58" height="949.692" filterUnits="userSpaceOnUse" color-interpolation-filters="sRGB">
<feFlood flood-opacity="0" result="BackgroundImageFix"/>
<feColorMatrix in="SourceAlpha" type="matrix" values="0 0 0 0 0 0 0 0 0 0 0 0 0 0 0 0 0 0 127 0" result="hardAlpha"/>
<feOffset dx="10" dy="10"/>
<feGaussianBlur stdDeviation="5"/>
<feComposite in2="hardAlpha" operator="out"/>
<feColorMatrix type="matrix" values="0 0 0 0 0 0 0 0 0 0 0 0 0 0 0 0 0 0 1 0"/>
<feBlend mode="normal" in2="BackgroundImageFix" result="effect1_dropShadow_452_2"/>
<feBlend mode="normal" in="SourceGraphic" in2="effect1_dropShadow_452_2" result="shape"/>
</filter>
</defs>
</svg>
