<svg width="4313" height="1854" viewBox="0 0 4313 1854" fill="none" xmlns="http://www.w3.org/2000/svg">
<g filter="url(#filter0_d_327_12)">
<path d="M3637.9 739.242C3661.31 726.944 3677.49 704.865 3689.79 683.603C3700.75 664.669 3709.36 644.611 3716.24 624.264C3717.59 620.25 3718.91 616.213 3720.04 612.146C3736.71 602.956 3753.86 594.534 3771.4 586.87C3772.46 588.806 3774.05 590.507 3775.1 592.48C3776.17 594.502 3777.02 596.678 3777.56 598.882C3778.69 603.457 3778.2 608.951 3775.6 613.186C3775.21 613.832 3775.69 614.842 3776.59 614.727C3787.13 613.394 3793.35 603.533 3796.95 595.398C3799.26 590.191 3800.98 584.767 3803.86 579.765C3805.54 576.856 3807.71 573.788 3810.36 571.286C3815.46 569.421 3820.58 567.602 3825.73 565.856C3847.71 558.394 3870.12 551.916 3892.84 546.838C3896.48 548.841 3899.88 551.212 3902.75 554.428C3910.04 562.592 3911.57 574.32 3912.65 584.595C3913.94 596.912 3914.66 612.3 3909.79 624.275C3905.81 634.061 3895.92 641.614 3891.93 650.7C3896.12 651.765 3902.89 649.632 3907.07 648.295C3915.15 645.712 3923.08 641.96 3930.33 637.808C3960.12 620.763 3973.2 587.709 3983.75 559.193C3987.58 548.852 3991.34 538.719 3998.58 529.803C4000.82 527.037 4004.41 522.473 4008.4 518.385C4019.02 513.021 4031.02 509.615 4045.42 506.852L4045.41 506.901C4081.86 500.875 4214.39 489.725 4267.45 454.585C4270.95 452.263 4275.26 448.735 4277.6 445.366C4280.08 441.785 4280.71 437.477 4279.06 433.611C4277.13 429.09 4273.07 425.631 4269.17 422.503C4256.03 411.949 4239.17 405.358 4221.51 403.749C4220.36 404.54 4219.18 405.293 4217.96 406.003C4213.69 408.481 4208.99 410.38 4204.17 411.692C4194.5 414.322 4183.94 414.516 4174.61 411.389C4174.24 411.267 4174.37 410.669 4174.78 410.744C4184.15 412.42 4194.03 411.929 4203.2 408.88C4207.64 407.406 4211.88 405.418 4215.73 402.873C4216.25 402.527 4216.75 402.15 4217.26 401.789C4216.99 401.365 4216.7 400.948 4216.4 400.544C4215.48 399.323 4214.51 398.138 4213.48 396.995C4211.37 394.639 4209.04 392.454 4206.53 390.444C4190.28 377.382 4134.2 373.561 4103.52 374.004C4098.91 374.79 4094.25 375.292 4089.72 375.58C4076.69 376.407 4063.69 375.25 4050.75 374.434C4037.67 373.612 4024.46 373.471 4011.3 373.876C4005.57 374.053 3999.87 374.397 3994.18 374.836C3986.59 375.531 3979.02 376.438 3971.49 377.6C3959.97 379.377 3948.53 381.688 3937.24 384.544C3925.9 387.413 3914.71 390.977 3903.08 392.581C3895.7 393.598 3887.61 393.725 3880.28 391.988C3879.35 391.603 3878.41 391.233 3877.5 390.829C3870.38 387.69 3863.62 384.025 3857.17 379.889C3844.07 371.498 3832.54 361.334 3820.76 351.517C3809.18 341.852 3797.23 332.455 3783.64 325.13C3770.35 317.967 3755.76 312.704 3740.6 309.512C3732.15 307.732 3723.51 306.605 3714.8 306.12C3710.33 305.873 3705.83 305.774 3701.34 305.909C3698.47 305.996 3695.66 306.36 3692.84 306.786C3692.73 306.79 3692.62 306.766 3692.51 306.775C3691.88 306.834 3691.24 306.93 3690.62 307.058C3689.7 307.041 3688.78 307.046 3687.87 307.193C3686.58 307.4 3685.31 308.203 3685.23 309.5C3685.22 309.616 3685.28 309.723 3685.3 309.838C3685.13 310.247 3685.14 310.728 3685.43 311.234C3688.43 316.376 3694.12 319.655 3699.32 322.745C3704.9 326.057 3710.24 329.587 3715.24 333.591C3725.24 341.609 3733.77 350.956 3741.69 360.702C3757.47 380.151 3770.93 401.332 3789.26 418.944C3794.31 423.793 3799.68 428.369 3805.56 432.376C3808.47 434.356 3811.47 436.22 3814.58 437.938C3815.56 438.479 3816.58 439.011 3817.61 439.514C3822.41 437.821 3827.16 435.978 3831.84 433.951C3846.54 427.59 3860.45 419.76 3872.67 409.821C3872.83 409.694 3873.02 409.907 3872.87 410.038C3866.21 415.979 3859.19 421.401 3851.72 426.467C3841.67 433.276 3830.63 439.054 3819.03 443.534C3811.45 449.754 3795.1 466.651 3777.27 485.871C3771.52 486.576 3765.9 488.68 3760.69 492.775C3756.4 496.143 3752.22 501.078 3751.11 506.165C3754.16 503.987 3758 502.724 3761.66 502.859C3736.65 530.338 3712.92 557.545 3710.02 562.073C3708.18 564.955 3706.36 567.851 3704.58 570.766C3704.16 571.446 3703.6 572.195 3703.1 572.958C3694.78 560.243 3684.21 547.93 3669.83 540.663C3662.62 537.021 3654.18 534.654 3645.72 535.315C3644.2 535.434 3642.58 535.605 3641.11 536.05C3640.08 536.362 3639.81 537.462 3640.49 538.149C3655.52 553.488 3663.94 573.537 3668.19 593.759C3669.96 602.151 3671.48 610.687 3670.08 619.296C3667.75 633.515 3663.59 647.601 3659.6 661.54C3654.91 677.926 3649.89 694.243 3644.73 710.525C3641.88 719.512 3638.64 728.452 3636.02 737.488C3635.98 737.621 3635.93 737.751 3635.89 737.883C3635.54 738.969 3636.88 739.773 3637.9 739.242Z" fill="#0044D1"/>
<path d="M4092.7 372.826C4093.98 372.723 4095.24 372.58 4096.51 372.432C4096.84 372.044 4097.18 371.653 4097.52 371.274C4099.27 369.285 4101.04 367.314 4102.81 365.343C4106.31 361.461 4109.79 357.567 4113.09 353.546C4119.58 345.62 4125.34 337.011 4128.31 327.502C4129.6 323.395 4130.72 318.709 4130.61 314.326C4130.82 313.601 4130.74 312.847 4130.44 312.15C4130.42 311.953 4130.41 311.747 4130.38 311.551C4130.3 311.086 4129.96 310.878 4129.56 310.853C4129.15 310.444 4128.66 310.092 4128.08 309.867C4124.29 308.387 4120.8 311.213 4118.57 313.803C4112.84 320.442 4106.42 326.397 4098.8 331.235C4083.88 340.711 4066.55 346.223 4051.61 355.684C4047.8 358.103 4044.11 360.748 4040.83 363.767C4038.38 366.03 4035.97 368.52 4034.08 371.25C4040.6 371.531 4047.11 371.95 4053.63 372.373C4066.59 373.211 4079.66 373.891 4092.7 372.826Z" fill="#0044D1"/>
</g>
<g filter="url(#filter1_d_327_12)">
<path d="M699.387 583.23C702.026 578.219 670.551 557.325 649.018 543.79C589.574 506.416 400.601 412.704 392.19 366.86C388.967 349.297 390.355 332.683 391.696 316.616C394.492 283.144 397.382 248.529 359.181 203.442L356.313 200.057L356.28 204.223C356.273 205.104 355.036 292.045 309.424 317.251C299.038 312.507 192.602 262.229 161.865 183.694C161.671 182.682 161.489 181.67 161.259 180.664C160.553 177.556 159.66 172.435 159.137 169.302C158.047 162.801 156.742 156.325 155.691 149.818C153.436 135.851 151.256 121.865 148.37 107.98C143.44 84.2511 135.958 60.5284 121.398 39.629C113.658 28.5183 103.787 18.3193 91.8662 10.2506C91.203 9.80084 90.3998 10.0136 89.9768 10.439C89.8692 10.3418 89.8262 10.2628 89.8119 10.2081C89.7939 10.2476 89.7796 10.2841 89.715 10.3479C95.6953 22.4736 97.1473 35.5749 97.3731 48.7886C97.746 70.8854 92.1351 92.6115 86.0115 114.079C85.0327 120.796 84.2009 127.469 84.3551 134.328C84.7674 152.754 88.3956 172.681 77.8406 189.706C75.4098 193.626 72.918 197.537 70.3007 201.391C67.8914 205.147 65.1809 208.882 62.1837 212.453C59.8245 215.407 57.3579 218.294 54.7084 221.068C50.087 225.91 44.5513 230.736 37.8218 233.434C36.9506 233.784 28.8729 237.282 18.5724 236.06C17.3821 235.92 13.7753 235.173 10.6812 234.109C10.6131 234.164 10.5414 234.212 10.484 234.276C10.312 234.209 10.1147 234.264 10 234.367C10.0645 234.446 10.1291 234.528 10.1901 234.61C10.2689 234.677 10.3586 234.735 10.4231 234.814C10.7529 235.209 10.9896 235.656 11.3194 236.051C11.3696 236.109 11.3696 236.179 11.4054 236.242C11.6026 236.495 11.7927 236.75 11.972 237.011C12.0508 237.032 12.1333 237.051 12.2121 237.075C16.181 241.05 21.0857 244.335 26.2808 247.086C31.4472 249.821 36.9971 252.03 42.92 253.237C50.1659 254.714 56.2071 254.261 63.5354 253.443C74.3235 251.273 80.5224 248.332 86.9795 244.955C89.4497 243.664 91.8375 242.235 94.0998 240.695C116.103 225.724 129.673 259.485 143.846 309.48C132.606 302.797 119.211 297.594 107.028 300.916C122.484 309.805 130.849 323.216 139.647 337.491C144.068 344.663 148.571 351.622 154.125 358.083C152.712 346.96 151.758 335.795 150.378 324.672C150.349 324.432 150.826 324.38 150.876 324.614C153.185 335.716 155.928 346.757 158.194 357.864C159.065 362.125 159.793 366.413 160.488 370.704C177.45 432.199 198.951 498.347 235.998 529.71C250.178 529.382 264.347 531.697 277.619 536.013C295.997 541.988 312.332 550.959 329.165 559.438C329.333 559.523 329.183 559.742 329.011 559.659C319.8 555.271 310.324 551.178 300.744 547.397C284.259 540.887 266.616 535.596 248.378 534.302C243.925 533.986 239.433 533.925 234.962 534.129C221.807 537.058 195.932 546.306 168.086 575.49C162.464 581.379 156.415 587.956 150.009 594.918C130.139 616.517 106.795 641.871 89.2382 653.833C76.5463 658.671 64.2918 658.422 49.1154 659.009C45.3939 665.546 56.2178 671.04 66.2064 674.514C72.0575 678.094 87.0942 684.081 107.67 684.081C128.289 684.078 154.458 678.06 182.47 657.586C244.789 612.019 290.44 583.726 324.819 583.726C325.009 583.726 325.196 583.726 325.386 583.729C329.004 585.655 356.933 600.218 388.433 607.819C389.437 608.412 390.401 609.035 391.337 609.679C391.853 609.752 392.373 609.825 392.89 609.898C410.371 612.347 427.814 614.997 445.27 617.568C445.285 617.392 445.324 617.219 445.335 617.043C471.669 620.389 544.314 627.555 581.626 623.507C581.859 623.464 621.655 622.036 628.729 601.467C628.517 601.401 628.299 601.343 628.087 601.273C614.348 596.854 601.807 590.08 590.029 582.717C589.761 582.546 590.015 582.16 590.298 582.328C597.024 586.287 604.313 589.427 611.746 592.317C618.26 594.848 625.323 596.693 632.182 598.447C635.086 599.188 638.022 599.845 640.969 600.474C659.731 599.337 693.185 595.013 699.387 583.23Z" fill="#0044D1"/>
<path d="M396.26 614.085C396.507 614.389 396.787 614.669 397.013 614.991C400.921 620.559 400.512 628.943 397.371 634.617C392.528 643.361 379.588 647.32 375.594 656.012C388.397 651.955 402.093 657.331 415.032 652.159C426.387 647.621 435.476 638.632 441.37 629.262C443.03 626.621 444.062 623.926 444.686 621.206C434.988 619.793 425.297 618.349 415.602 616.942C409.149 616.003 402.703 615.046 396.26 614.085Z" fill="#0044D1"/>
</g>
<g filter="url(#filter2_d_327_12)">
<path d="M3560.48 1532.97L3560.48 1532.97L3560.48 1532.99L3560.48 1532.97Z" fill="#0044D1"/>
<path d="M3551.63 1521.83C3551.62 1521.75 3551.61 1521.66 3551.6 1521.58C3551.58 1521.54 3551.55 1521.51 3551.53 1521.47C3551.57 1521.59 3551.6 1521.71 3551.63 1521.83Z" fill="#0044D1"/>
<path d="M3092.55 1638.08C3092.57 1638.07 3092.6 1638.06 3092.63 1638.06C3095.73 1640.46 3099.17 1642.52 3102.36 1644.83C3105.9 1647.39 3109.36 1650.03 3112.75 1652.75C3119.48 1658.15 3126.04 1663.74 3132.66 1669.25C3144.7 1679.27 3156.35 1688.17 3172.6 1696.09C3180.28 1699.83 3188.24 1702.55 3197.28 1702.96C3223.06 1714.3 3228.25 1768.68 3230.45 1770.5C3231.36 1771.25 3233.01 1770.16 3232.41 1769.09C3234.95 1765.44 3236.6 1761.14 3238.11 1757.18C3239.81 1752.7 3241.28 1748.17 3242.5 1743.61C3244.92 1734.52 3246.48 1725.33 3247.08 1716.18C3247.41 1711.16 3247.44 1706.17 3247.13 1701.22C3247.14 1701.22 3247.15 1701.22 3247.16 1701.22C3248.5 1701.12 3249.83 1701.01 3251.16 1700.89C3253.75 1700.66 3256.33 1700.35 3258.91 1700.01C3264.06 1699.33 3269.22 1698.5 3274.36 1697.55C3276.65 1697.13 3278.93 1696.68 3281.22 1696.22C3280.96 1696.74 3280.69 1697.26 3280.45 1697.77C3279.49 1699.73 3277.68 1701.41 3276.98 1703.39C3284.25 1702.54 3290.25 1698.31 3295.11 1693.02C3298.52 1692.14 3301.92 1691.2 3305.3 1690.14C3308.09 1689.26 3310.86 1688.34 3313.61 1687.36C3314.39 1687.08 3315.17 1686.79 3315.95 1686.5C3320.55 1677.37 3326 1668.52 3332.07 1660.06C3343.74 1643.8 3357.39 1628.8 3370.67 1613.59C3370.76 1613.49 3370.94 1613.61 3370.85 1613.72C3363.61 1622.29 3356.55 1631.01 3349.67 1639.81C3338.01 1654.73 3327.23 1670.62 3319.05 1687.18C3316.38 1692.58 3314.02 1698.09 3312.01 1703.68C3307.65 1718.12 3305.05 1732.74 3305.58 1747.26C3305.86 1755.07 3306.99 1762.76 3309.2 1770.09C3310.3 1773.71 3311.65 1777.26 3313.26 1780.66C3314.11 1782.44 3315.03 1784.19 3316.03 1785.89C3316.5 1786.68 3316.96 1787.47 3317.47 1788.22C3317.75 1788.64 3318.09 1788.98 3318.46 1789.3C3318.5 1789.41 3318.5 1789.52 3318.57 1789.63C3319.95 1791.87 3323.19 1792.09 3325.73 1790.57C3328.6 1788.86 3329.43 1785.6 3329.94 1782.85C3331.17 1776.26 3331.14 1769.67 3331.79 1763.09C3333 1750.92 3337.91 1739.27 3344.88 1728.3C3360.09 1704.32 3383.2 1685.25 3398.59 1661.37C3399 1660.74 3399.37 1660.1 3399.77 1659.46C3401.44 1657.24 3403.23 1655.11 3405.16 1653.07C3408.3 1646.41 3410.64 1639.54 3411.64 1632.54C3411.67 1632.34 3412.02 1632.32 3411.99 1632.53C3411.56 1636.15 3410.9 1639.78 3410.09 1643.39C3411.02 1639.57 3411.82 1635.73 3412.25 1631.9C3412.27 1631.69 3412.61 1631.63 3412.64 1631.84C3413.49 1636.49 3413.69 1641.28 3412.65 1646.15C3412.63 1646.22 3412.61 1646.29 3412.6 1646.35C3417.78 1642.27 3423.39 1638.73 3429.26 1635.67C3430.63 1634.95 3432.02 1634.29 3433.41 1633.62C3431.83 1636.77 3430.08 1639.88 3428.59 1642.98C3431.65 1641.53 3435.07 1640.66 3438.2 1639.29C3442.95 1637.22 3448.03 1634.69 3452.35 1631.8C3457 1628.67 3461.25 1624.68 3465.07 1620.3C3468.7 1618.76 3472.31 1617.16 3475.85 1615.4C3489.83 1608.46 3502.69 1599.22 3513.62 1588.33C3519.08 1582.9 3524.08 1577.07 3528.5 1570.93C3532.93 1564.79 3536.56 1558.28 3540.67 1551.98C3542.88 1548.6 3545.27 1545.25 3547.99 1542.15C3548.03 1542.07 3548.07 1542.01 3548.1 1541.93C3548.68 1540.56 3549.17 1539.16 3549.53 1537.74C3550.31 1534.74 3550.61 1531.67 3550.4 1528.7C3550.15 1525.23 3549.26 1521.85 3548.01 1518.69C3546.88 1515.79 3545.58 1512.98 3544.4 1510.11C3540.9 1503.26 3538.73 1495.69 3538.07 1487.79C3538.05 1487.58 3538.4 1487.47 3538.43 1487.68C3539.11 1492.73 3540.68 1497.67 3542.73 1502.24C3546.32 1510.22 3552.24 1517.23 3559.1 1522.85C3562.36 1525.53 3565.9 1527.94 3569.7 1529.97C3582.81 1529.86 3596.05 1527.7 3609.18 1525.28C3635.68 1520.41 3664.94 1513.95 3689.19 1523.62C3696.15 1526.4 3702.33 1530.38 3709.2 1533.32C3712.16 1534.59 3715.81 1536.31 3719.41 1535C3722.47 1533.89 3724.48 1530.63 3723.15 1528.02C3723.09 1527.91 3723.01 1527.86 3722.94 1527.77C3722.89 1527.43 3722.83 1527.08 3722.71 1526.76C3722.44 1526.06 3722.04 1525.38 3721.69 1524.72C3720.85 1523.1 3719.94 1521.52 3718.97 1519.98C3717.2 1517.18 3715.22 1514.51 3713.09 1511.95C3708.67 1506.67 3703.5 1501.96 3697.83 1497.83C3686.46 1489.56 3673.25 1483.73 3659.22 1479.58C3630.1 1470.96 3598.55 1469.76 3567.68 1466.79C3558.8 1465.94 3549.95 1464.98 3541.19 1463.66C3535.53 1462.81 3530.06 1461.5 3525.47 1458.82C3519.16 1446.69 3510.62 1435.84 3500.67 1426.24C3488.76 1414.75 3474.63 1405.26 3459.15 1397.97C3448.88 1393.14 3438.02 1389.3 3426.75 1386.41L3426.85 1386.58C3426.61 1386.51 3426.38 1386.45 3426.13 1386.39C3396.67 1378.99 3345.72 1373.43 3296.1 1378.79C3234.38 1385.45 3198.17 1409.54 3201.45 1422.29C3202.94 1428.09 3215 1439.09 3233.61 1442.82C3234.29 1442.46 3234.96 1442.09 3235.63 1441.72C3240.18 1439.17 3244.63 1436.38 3249.43 1434.33C3253.64 1432.52 3257.92 1431.32 3262.36 1430.65C3270.89 1429.37 3280.44 1429.97 3287.67 1433.45C3287.85 1433.54 3287.71 1433.82 3287.51 1433.77C3282.8 1432.53 3278.08 1431.56 3273.01 1431.54C3264.11 1431.49 3255.03 1434.06 3246.88 1438.33C3242.3 1440.73 3237.94 1443.53 3233.35 1445.9C3232.64 1446.27 3231.9 1446.61 3231.17 1446.95C3227.55 1454.19 3236.94 1468.95 3243.39 1475.49C3251.35 1483.56 3268.08 1500.42 3274.09 1504.81C3274.91 1505.4 3275.73 1505.98 3276.56 1506.53C3286.81 1515.86 3296.98 1525.27 3307.43 1534.42C3315.03 1541.09 3322.63 1547.75 3330.23 1554.42C3335.43 1558.98 3344.47 1566.52 3349.54 1570.74C3363.46 1585.68 3362.07 1603.55 3352.27 1612.84C3352.18 1612.93 3352.09 1613.02 3352.01 1613.11C3350.39 1614.82 3348.74 1616.51 3347.15 1618.25C3343.89 1621.8 3340.54 1625.29 3337.09 1628.69C3330.18 1635.51 3322.75 1641.92 3314.76 1647.61C3299.61 1658.39 3282.67 1666.8 3264.71 1671.14C3257.31 1672.93 3250.01 1673.83 3242.67 1674.18C3239.4 1673.64 3236.15 1673 3233.01 1672.16C3228.09 1670.84 3223.42 1669.05 3218.89 1667.01C3209.59 1662.84 3201.02 1657.58 3192.02 1652.95C3172.81 1643.07 3152 1634.68 3129.02 1632.81C3116.9 1631.82 3104.37 1632.65 3092.13 1636.05C3090.68 1636.46 3091.1 1638.47 3092.55 1638.08Z" fill="#0044D1"/>
</g>
<defs>
<filter id="filter0_d_327_12" x="3635.83" y="305.849" width="664.148" height="453.561" filterUnits="userSpaceOnUse" color-interpolation-filters="sRGB">
<feFlood flood-opacity="0" result="BackgroundImageFix"/>
<feColorMatrix in="SourceAlpha" type="matrix" values="0 0 0 0 0 0 0 0 0 0 0 0 0 0 0 0 0 0 127 0" result="hardAlpha"/>
<feOffset dx="10" dy="10"/>
<feGaussianBlur stdDeviation="5"/>
<feComposite in2="hardAlpha" operator="out"/>
<feColorMatrix type="matrix" values="0 0 0 0 0 0 0 0 0 0 0 0 0 0 0 0 0 0 1 0"/>
<feBlend mode="normal" in2="BackgroundImageFix" result="effect1_dropShadow_327_12"/>
<feBlend mode="normal" in="SourceGraphic" in2="effect1_dropShadow_327_12" result="shape"/>
</filter>
<filter id="filter1_d_327_12" x="0" y="0" width="729.543" height="714.081" filterUnits="userSpaceOnUse" color-interpolation-filters="sRGB">
<feFlood flood-opacity="0" result="BackgroundImageFix"/>
<feColorMatrix in="SourceAlpha" type="matrix" values="0 0 0 0 0 0 0 0 0 0 0 0 0 0 0 0 0 0 127 0" result="hardAlpha"/>
<feOffset dx="10" dy="10"/>
<feGaussianBlur stdDeviation="10"/>
<feComposite in2="hardAlpha" operator="out"/>
<feColorMatrix type="matrix" values="0 0 0 0 0 0 0 0 0 0 0 0 0 0 0 0 0 0 1 0"/>
<feBlend mode="normal" in2="BackgroundImageFix" result="effect1_dropShadow_327_12"/>
<feBlend mode="normal" in="SourceGraphic" in2="effect1_dropShadow_327_12" result="shape"/>
</filter>
<filter id="filter2_d_327_12" x="3091.23" y="1376.66" width="652.335" height="434.891" filterUnits="userSpaceOnUse" color-interpolation-filters="sRGB">
<feFlood flood-opacity="0" result="BackgroundImageFix"/>
<feColorMatrix in="SourceAlpha" type="matrix" values="0 0 0 0 0 0 0 0 0 0 0 0 0 0 0 0 0 0 127 0" result="hardAlpha"/>
<feOffset dx="10" dy="10"/>
<feGaussianBlur stdDeviation="5"/>
<feComposite in2="hardAlpha" operator="out"/>
<feColorMatrix type="matrix" values="0 0 0 0 0 0 0 0 0 0 0 0 0 0 0 0 0 0 1 0"/>
<feBlend mode="normal" in2="BackgroundImageFix" result="effect1_dropShadow_327_12"/>
<feBlend mode="normal" in="SourceGraphic" in2="effect1_dropShadow_327_12" result="shape"/>
</filter>
</defs>
</svg>
